<svg xmlns="http://www.w3.org/2000/svg" width="108.82" height="95.907" viewBox="0 0 108.82 95.907">
  <g id="house" transform="translate(0 -0.094)">
    <path id="Path" d="M11.111,0V26.487H0V0" transform="translate(18.063 63.123)" fill="#c97523"/>
    <path id="Path-2" data-name="Path" d="M4.956,0V26.487H0V0" transform="translate(18.232 63.123)" fill="#a85613"/>
    <ellipse id="Oval" cx="26.955" cy="42.375" rx="26.955" ry="42.375" transform="translate(0 0.094)" fill="#00c45a"/>
    <path id="Path-3" data-name="Path" d="M26.955,84.751C12.067,84.751,0,65.777,0,42.375S12.067,0,26.955,0C20.363,0,15.023,18.973,15.023,42.375S20.363,84.751,26.955,84.751Z" transform="translate(0 0.094)" fill="#09b257"/>
    <path id="Path-4" data-name="Path" d="M70.783,34.525V88.478H0V34.525L35.591,0Z" transform="translate(27.307 7.522)" fill="#e9eaef"/>
    <path id="Path-5" data-name="Path" d="M0,9.966V0H17.7V26.818" transform="translate(80.77 23.54)" fill="#9eb1b7"/>
    <path id="Path-6" data-name="Path" d="M0,9.966V0H4.25V26.818" transform="translate(84.273 23.54)" fill="#879ba0"/>
    <g id="Group" transform="translate(0 84.694)">
      <path id="Path-7" data-name="Path" d="M3.633,0H39.1a3.633,3.633,0,0,1,3.633,3.633v7.673H0V3.633A3.632,3.632,0,0,1,3.633,0Z" transform="translate(66.087)" fill="#00c45a"/>
      <path id="Path-8" data-name="Path" d="M3.633,0H44.772A3.633,3.633,0,0,1,48.4,3.633v7.673H0V3.633A3.632,3.632,0,0,1,3.633,0Z" fill="#00c45a"/>
    </g>
    <path id="Path-9" data-name="Path" d="M70.783,33.641V43.725L35.391,9.934,0,43.725V33.641L32.58,2.611,35.391,0,38.2,2.611Z" transform="translate(27.307 20.278)" fill="#d2d4d8"/>
    <path id="Path-10" data-name="Path" d="M45.929,9.934,5.634,48.406,0,43.676,43.12,2.61,45.929,0l2.81,2.61,43.12,41.066-5.634,4.73Z" transform="translate(16.768 15.619)" fill="#ea4756"/>
    <rect id="Rectangle" width="23.343" height="40.422" transform="translate(44.597 55.577)" fill="#c97523"/>
    <path id="Path-11" data-name="Path" d="M26.7,42.1H23.343V3.359H3.359V42.1H0V1.68A1.679,1.679,0,0,1,1.68,0H25.023A1.679,1.679,0,0,1,26.7,1.68V42.1Z" transform="translate(42.905 53.897)" fill="#8e480e"/>
    <rect id="Rectangle-2" data-name="Rectangle" width="26.583" height="23.343" transform="translate(66.088 58.648)" fill="#a0d9f2"/>
    <rect id="Rectangle-3" data-name="Rectangle" width="26.583" height="7.093" transform="translate(66.088 60.64)" fill="#c97523"/>
    <g id="Group-2" data-name="Group" transform="translate(48.996 53.897)">
      <path id="Shape" d="M28.262,26.7H1.679A1.681,1.681,0,0,1,0,25.023V1.679A1.681,1.681,0,0,1,1.679,0H28.262a1.681,1.681,0,0,1,1.679,1.679V25.023A1.681,1.681,0,0,1,28.262,26.7ZM3.359,3.359V23.343H26.582V3.359Z" transform="translate(15.411 0)" fill="#8e480e"/>
      <path id="Path-12" data-name="Path" d="M5.068,3.359H1.68A1.68,1.68,0,0,1,1.68,0H5.068a1.68,1.68,0,0,1,0,3.359Z" transform="translate(0 20.082)" fill="#8e480e"/>
    </g>
    <circle id="Oval-2" data-name="Oval" cx="6.493" cy="6.493" r="6.493" transform="translate(62.485 39.41)" fill="#413740"/>
    <rect id="Rectangle-4" data-name="Rectangle" width="26.583" height="3.359" transform="translate(66.088 65.632)" fill="#8e480e"/>
    <path id="Shape-2" data-name="Shape" d="M8.174,16.348a8.174,8.174,0,1,1,8.174-8.174A8.183,8.183,0,0,1,8.174,16.348Zm0-12.989a4.815,4.815,0,1,0,4.815,4.815A4.82,4.82,0,0,0,8.174,3.359Z" transform="translate(60.721 37.744)" fill="#ea4756"/>
    <g id="Group-3" data-name="Group" transform="translate(3.465 79.145)">
      <path id="Path-13" data-name="Path" d="M1.938,8.779A1.938,1.938,0,0,1,0,6.841v-4.9a1.938,1.938,0,0,1,3.876,0v4.9A1.938,1.938,0,0,1,1.938,8.779Z" transform="translate(6.225)" fill="#00c45a"/>
      <path id="Path-14" data-name="Path" d="M1.938,8.779A1.938,1.938,0,0,1,0,6.841v-4.9a1.938,1.938,0,0,1,3.876,0v4.9A1.938,1.938,0,0,1,1.938,8.779Z" fill="#00c45a"/>
      <path id="Path-15" data-name="Path" d="M1.938,8.779A1.938,1.938,0,0,1,0,6.841v-4.9a1.938,1.938,0,0,1,3.876,0v4.9A1.938,1.938,0,0,1,1.938,8.779Z" transform="translate(33.53)" fill="#00c45a"/>
    </g>
  </g>
</svg>
